<?xml version="1.0" standalone="no"?><svg xmlns="http://www.w3.org/2000/svg" viewBox="0 0 1440 320"><path fill="#eeeeee" fill-opacity="1" d="M0,32L17.1,48C34.3,64,69,96,103,106.7C137.1,117,171,107,206,128C240,149,274,203,309,202.7C342.9,203,377,149,411,128C445.7,107,480,117,514,112C548.6,107,583,85,617,101.3C651.4,117,686,171,720,160C754.3,149,789,75,823,48C857.1,21,891,43,926,74.7C960,107,994,149,1029,144C1062.9,139,1097,85,1131,96C1165.7,107,1200,181,1234,197.3C1268.6,213,1303,171,1337,138.7C1371.4,107,1406,85,1423,74.7L1440,64L1440,320L1422.9,320C1405.7,320,1371,320,1337,320C1302.9,320,1269,320,1234,320C1200,320,1166,320,1131,320C1097.1,320,1063,320,1029,320C994.3,320,960,320,926,320C891.4,320,857,320,823,320C788.6,320,754,320,720,320C685.7,320,651,320,617,320C582.9,320,549,320,514,320C480,320,446,320,411,320C377.1,320,343,320,309,320C274.3,320,240,320,206,320C171.4,320,137,320,103,320C68.6,320,34,320,17,320L0,320Z"></path></svg>